<mxfile host="app.diagrams.net" agent="Mozilla/5.0 (Windows NT 10.0; Win64; x64) AppleWebKit/537.36 (KHTML, like Gecko) Chrome/140.0.0.0 Safari/537.36" version="28.2.0">
  <diagram name="Página-1" id="ZmiVusArg0eAbAJM250A">
    <mxGraphModel dx="1489" dy="753" grid="1" gridSize="10" guides="1" tooltips="1" connect="1" arrows="1" fold="1" page="1" pageScale="1" pageWidth="827" pageHeight="1169" math="0" shadow="0">
      <root>
        <mxCell id="0" />
        <mxCell id="1" parent="0" />
        <mxCell id="7BSrLb9yEdah-kjwerx5-56" style="edgeStyle=orthogonalEdgeStyle;rounded=0;orthogonalLoop=1;jettySize=auto;html=1;entryX=0;entryY=0.5;entryDx=0;entryDy=0;" edge="1" parent="1" source="7BSrLb9yEdah-kjwerx5-57">
          <mxGeometry relative="1" as="geometry">
            <mxPoint x="370" y="821" as="sourcePoint" />
            <mxPoint x="580" y="745" as="targetPoint" />
            <Array as="points">
              <mxPoint x="485" y="821" />
              <mxPoint x="485" y="763" />
              <mxPoint x="580" y="763" />
            </Array>
          </mxGeometry>
        </mxCell>
        <mxCell id="7BSrLb9yEdah-kjwerx5-57" value="ADM" style="shape=umlActor;verticalLabelPosition=bottom;verticalAlign=top;html=1;outlineConnect=0;" vertex="1" parent="1">
          <mxGeometry x="330" y="758.5" width="40" height="80" as="geometry" />
        </mxCell>
        <mxCell id="7BSrLb9yEdah-kjwerx5-58" value="ALTERAÇÃO&lt;div&gt;HORÁRIO/CARGA&lt;/div&gt;" style="ellipse;whiteSpace=wrap;html=1;" vertex="1" parent="1">
          <mxGeometry x="560" y="700" width="120" height="45" as="geometry" />
        </mxCell>
        <mxCell id="7BSrLb9yEdah-kjwerx5-59" value="Confirmar envio de notificações" style="ellipse;whiteSpace=wrap;html=1;" vertex="1" parent="1">
          <mxGeometry x="827" y="770" width="120" height="80" as="geometry" />
        </mxCell>
        <mxCell id="7BSrLb9yEdah-kjwerx5-60" value="Notificação a motoristas afetados" style="ellipse;whiteSpace=wrap;html=1;" vertex="1" parent="1">
          <mxGeometry x="1050" y="665" width="120" height="80" as="geometry" />
        </mxCell>
        <mxCell id="7BSrLb9yEdah-kjwerx5-61" value="MOTORISTA" style="shape=umlActor;verticalLabelPosition=bottom;verticalAlign=top;html=1;outlineConnect=0;" vertex="1" parent="1">
          <mxGeometry x="330" y="606" width="40" height="80" as="geometry" />
        </mxCell>
        <mxCell id="7BSrLb9yEdah-kjwerx5-62" value="&amp;lt;&amp;lt;include&amp;gt;&amp;gt;" style="html=1;verticalAlign=bottom;labelBackgroundColor=none;endArrow=open;endFill=0;dashed=1;rounded=0;" edge="1" parent="1" source="7BSrLb9yEdah-kjwerx5-58" target="7BSrLb9yEdah-kjwerx5-59">
          <mxGeometry x="-0.0506" y="5" width="160" relative="1" as="geometry">
            <mxPoint x="766.9964068711929" y="452.7157287525381" as="sourcePoint" />
            <mxPoint x="877.5699999999999" y="406" as="targetPoint" />
            <mxPoint as="offset" />
          </mxGeometry>
        </mxCell>
        <mxCell id="7BSrLb9yEdah-kjwerx5-63" value="&amp;lt;&amp;lt;include&amp;gt;&amp;gt;" style="html=1;verticalAlign=bottom;labelBackgroundColor=none;endArrow=open;endFill=0;dashed=1;rounded=0;exitX=1;exitY=0.5;exitDx=0;exitDy=0;entryX=0;entryY=0.5;entryDx=0;entryDy=0;" edge="1" parent="1" source="7BSrLb9yEdah-kjwerx5-59" target="7BSrLb9yEdah-kjwerx5-60">
          <mxGeometry width="160" relative="1" as="geometry">
            <mxPoint x="960" y="376" as="sourcePoint" />
            <mxPoint x="1120" y="376" as="targetPoint" />
          </mxGeometry>
        </mxCell>
        <mxCell id="7BSrLb9yEdah-kjwerx5-64" value="CASO DE USO 04&lt;div&gt;&lt;br&gt;&lt;/div&gt;" style="rounded=1;whiteSpace=wrap;html=1;strokeWidth=3;fontSize=23;" vertex="1" parent="1">
          <mxGeometry x="350" y="420" width="1200" height="60" as="geometry" />
        </mxCell>
        <mxCell id="7BSrLb9yEdah-kjwerx5-65" style="edgeStyle=orthogonalEdgeStyle;rounded=0;orthogonalLoop=1;jettySize=auto;html=1;entryX=0.333;entryY=0.129;entryDx=0;entryDy=0;exitX=0.5;exitY=0.5;exitDx=0;exitDy=0;exitPerimeter=0;entryPerimeter=0;" edge="1" parent="1" source="7BSrLb9yEdah-kjwerx5-61" target="7BSrLb9yEdah-kjwerx5-58">
          <mxGeometry relative="1" as="geometry">
            <mxPoint x="390" y="616" as="sourcePoint" />
            <mxPoint x="550" y="616" as="targetPoint" />
          </mxGeometry>
        </mxCell>
      </root>
    </mxGraphModel>
  </diagram>
</mxfile>
